<?xml version="1.0" standalone="no"?>
<!DOCTYPE svg PUBLIC "-//W3C//DTD SVG 20010904//EN"
 "http://www.w3.org/TR/2001/REC-SVG-20010904/DTD/svg10.dtd">
<svg version="1.0" xmlns="http://www.w3.org/2000/svg"
 width="600.000000pt" height="600.000000pt" viewBox="0 0 600.000000 600.000000"
 preserveAspectRatio="xMidYMid meet">
<metadata>
Created by potrace 1.14, written by Peter Selinger 2001-2017
</metadata>
<g transform="translate(0.000000,600.000000) scale(0.100000,-0.100000)"
fill="#000000" stroke="none">
<path d="M2140 5019 c0 -6 -9 -9 -20 -6 -11 3 -20 1 -20 -4 0 -5 -3 -8 -7 -7
-17 4 -117 -26 -158 -47 -24 -13 -46 -21 -49 -18 -3 4 -6 2 -6 -3 0 -5 -10
-10 -22 -11 -12 -1 -26 -9 -30 -18 -5 -8 -15 -15 -23 -15 -7 0 -20 -6 -27 -13
-7 -7 -29 -24 -48 -37 -69 -49 -180 -160 -234 -235 -11 -14 -28 -36 -38 -47
-10 -12 -18 -24 -18 -28 0 -4 -11 -20 -25 -36 -14 -16 -25 -33 -25 -37 0 -4
-18 -39 -39 -77 -22 -37 -37 -71 -34 -74 3 -3 -1 -8 -10 -12 -9 -3 -13 -12
-10 -20 3 -8 0 -14 -6 -14 -6 0 -10 -3 -8 -8 1 -4 -10 -36 -24 -72 -38 -94
-84 -245 -81 -262 1 -5 -2 -8 -7 -8 -5 0 -8 -7 -7 -16 2 -10 -3 -33 -10 -53
-6 -19 -11 -45 -9 -58 1 -12 -2 -20 -6 -17 -13 8 -11 -10 3 -24 9 -9 9 -12 0
-12 -7 0 -12 -16 -12 -40 0 -22 -4 -40 -8 -40 -10 0 -11 -8 -11 -225 0 -161 3
-260 9 -260 2 0 9 -33 15 -73 3 -18 10 -43 17 -55 7 -12 12 -26 13 -32 1 -22
17 -55 26 -55 6 0 7 -5 4 -10 -7 -11 18 -40 34 -40 6 0 12 11 12 25 2 29 2 32
13 63 8 23 9 22 39 -17 17 -23 35 -41 39 -41 4 0 8 -6 8 -12 0 -12 22 -42 62
-88 7 -8 31 -40 53 -70 21 -30 42 -57 45 -60 3 -3 17 -21 30 -40 25 -35 54
-71 78 -96 7 -8 10 -14 6 -14 -3 0 0 -7 7 -16 7 -9 15 -25 16 -37 2 -12 10
-28 18 -36 7 -9 14 -18 14 -21 0 -9 14 -45 20 -50 10 -8 55 -104 53 -112 -1
-5 2 -8 6 -8 5 0 22 -26 38 -57 31 -62 31 -62 69 -108 13 -16 21 -32 17 -35
-9 -6 -10 -60 0 -60 3 0 1 -13 -5 -30 -6 -16 -15 -30 -20 -30 -10 0 -52 -91
-49 -104 2 -5 -5 -17 -14 -27 -9 -11 -15 -19 -12 -19 3 0 1 -17 -4 -37 -6 -21
-11 -81 -13 -135 -3 -93 -2 -96 19 -93 25 4 82 26 112 42 12 7 24 10 27 6 4
-3 12 -1 19 5 8 6 50 9 103 8 88 -2 92 -4 168 -49 42 -26 77 -44 77 -41 0 3
12 -4 26 -15 15 -12 34 -21 42 -21 8 0 12 -3 9 -6 -4 -4 4 -19 16 -34 12 -14
33 -41 47 -60 14 -18 31 -39 38 -46 6 -7 12 -16 12 -21 0 -4 18 -28 40 -52 22
-24 40 -46 40 -49 0 -3 7 -12 15 -21 55 -59 89 -101 110 -137 l25 -41 86 2
c60 1 88 6 94 16 5 7 6 17 4 21 -3 4 2 5 11 2 9 -4 15 -3 13 2 -1 5 4 20 11
33 16 29 21 143 8 186 -4 17 -10 39 -12 50 -1 11 -3 20 -4 20 -2 0 -4 7 -6 16
-1 9 -6 26 -10 38 -5 17 -2 21 14 21 12 0 21 -5 21 -11 0 -6 6 -9 13 -6 6 2
23 -1 37 -6 14 -6 88 -11 165 -12 134 -2 141 -1 192 25 l52 27 33 -41 c18 -23
40 -49 48 -60 16 -20 114 -127 170 -186 20 -21 50 -45 68 -54 17 -9 33 -17 35
-19 11 -7 46 47 91 140 19 39 40 74 46 78 6 3 8 10 5 15 -3 5 6 29 21 52 15
24 27 45 27 48 -1 20 27 54 61 74 23 13 55 38 71 55 17 17 36 31 43 31 7 0 33
-20 58 -45 24 -25 47 -45 50 -45 3 0 20 -11 38 -25 18 -14 38 -25 44 -25 7 0
12 -5 12 -11 0 -6 7 -9 15 -6 8 4 16 3 19 -1 3 -4 22 -7 43 -6 53 2 55 3 48
14 -3 6 -2 10 3 10 5 0 9 7 9 15 0 19 -23 19 -31 0 -6 -16 -13 -14 -106 28
-45 20 -90 54 -90 68 0 13 -46 59 -59 59 -6 0 -11 7 -11 15 0 16 37 74 55 87
7 5 7 8 0 8 -6 0 -6 3 0 8 18 12 47 63 40 70 -3 4 -10 0 -14 -8 -57 -101 -198
-247 -246 -256 -29 -5 -33 11 -7 35 9 9 28 41 41 71 13 30 28 65 34 77 6 13 8
25 5 28 -9 10 -138 -192 -142 -222 -1 -15 -13 -46 -24 -67 -12 -22 -19 -43
-16 -48 3 -4 1 -8 -4 -8 -10 0 -86 -146 -105 -204 -19 -56 -37 -64 -77 -35
-46 32 -78 67 -180 194 -80 98 -171 193 -145 151 18 -29 18 -30 -5 -45 -12 -8
-28 -16 -34 -18 -6 -1 -28 -6 -48 -11 -47 -12 -176 -7 -288 12 -116 19 -112
17 -125 66 -1 3 -7 16 -13 30 -9 22 -11 22 -11 5 -1 -11 4 -38 11 -60 6 -22
11 -43 10 -48 -2 -6 3 -31 24 -122 3 -11 7 -57 10 -101 6 -89 -10 -143 -44
-145 -43 -3 -100 -8 -127 -11 -29 -4 -30 -2 -27 29 3 23 0 33 -9 33 -15 1
-153 173 -182 228 -10 19 -27 44 -38 56 -11 11 -43 52 -72 90 -28 38 -83 102
-121 142 -38 41 -80 90 -94 111 -14 21 -30 41 -36 45 -7 5 -7 8 -1 8 6 0 2 5
-7 11 -10 5 -18 17 -18 26 0 8 -11 24 -25 35 -14 11 -25 28 -25 38 0 11 -16
31 -35 46 -19 14 -45 43 -57 63 -12 20 -37 55 -56 79 -19 23 -30 42 -26 42 5
0 1 5 -8 11 -10 5 -18 16 -18 23 0 7 -9 21 -20 31 -11 10 -20 22 -20 27 0 4
-9 17 -21 29 -20 20 -23 53 -4 52 6 0 15 -9 21 -19 14 -25 76 -93 200 -218 70
-71 127 -117 185 -152 142 -85 210 -106 379 -118 36 -2 70 -6 75 -7 15 -3 66
12 100 30 17 9 35 16 40 16 9 0 39 11 85 29 8 3 33 18 55 31 22 14 55 32 73
40 17 9 32 20 32 26 0 6 7 9 15 5 8 -3 14 -1 12 4 -1 5 28 47 65 94 109 136
196 318 260 535 21 74 41 150 43 168 2 19 6 37 9 41 13 21 38 252 41 375 2
122 1 140 -16 160 -10 12 -19 19 -20 15 -1 -5 -2 -11 -3 -15 -1 -5 -27 -46
-58 -93 -31 -47 -64 -103 -74 -125 -22 -48 -120 -184 -137 -190 -35 -13 -65
-10 -92 8 -16 12 -32 24 -35 27 -3 4 -13 9 -23 13 -9 4 -22 18 -27 32 -8 22
-20 30 -42 26 -4 0 -5 6 -2 14 4 8 1 15 -5 15 -6 0 -11 6 -11 13 0 8 -9 22
-20 32 -11 10 -17 21 -15 25 3 5 2 10 -2 12 -11 4 -55 65 -85 119 -41 71 -54
77 -73 37 -23 -51 -116 -198 -154 -245 -37 -46 -103 -94 -129 -95 -42 0 -106
25 -146 58 -17 15 -51 43 -75 63 -62 51 -96 86 -176 179 -38 45 -73 82 -76 82
-10 0 -54 -71 -99 -161 -42 -83 -112 -194 -147 -235 -42 -48 -100 -62 -153
-37 -39 18 -150 127 -150 148 0 7 -6 18 -14 24 -14 12 -71 121 -68 132 0 4
-10 16 -22 29 l-24 22 -7 -21 c-3 -12 -11 -21 -16 -21 -6 0 -7 -4 -4 -10 3 -5
-10 -43 -29 -84 -20 -41 -38 -87 -42 -101 -3 -14 -13 -25 -22 -25 -8 0 -12 3
-9 6 3 4 0 16 -8 28 -8 11 -15 33 -15 48 0 16 -3 28 -7 28 -5 0 -9 12 -11 28
-6 57 -7 429 -1 464 4 26 3 35 -5 31 -6 -4 -5 0 2 9 7 9 14 39 15 67 1 28 5
51 8 51 4 0 10 19 14 43 4 23 10 49 12 57 2 8 5 27 8 43 2 15 10 34 18 41 8 8
20 36 26 63 7 26 18 59 24 73 6 14 11 27 12 30 1 3 7 18 13 33 7 16 21 52 33
80 45 110 94 222 99 227 3 3 17 23 30 45 42 69 137 191 185 237 40 39 122 86
200 115 91 35 262 79 315 82 19 1 52 6 72 11 29 8 152 21 203 22 44 1 208 -13
216 -17 10 -7 35 -12 90 -19 62 -8 280 -66 369 -97 47 -17 92 -32 100 -33 15
-2 147 -67 211 -103 20 -12 47 -27 60 -35 13 -7 28 -17 34 -23 7 -5 32 -26 56
-45 133 -106 228 -247 286 -423 27 -81 27 -84 25 -347 -2 -305 -2 -534 -1
-570 2 -35 -9 -204 -18 -286 -4 -38 -7 -75 -6 -81 2 -40 4 -46 9 -40 3 3 8 21
10 39 2 18 6 42 8 53 3 11 5 28 5 38 1 9 9 17 19 18 10 0 12 3 5 6 -19 7 -16
70 5 90 9 10 42 68 72 128 30 61 57 112 60 115 3 3 20 34 39 70 95 182 250
370 406 493 33 26 65 52 72 57 7 6 15 10 19 10 3 0 18 9 33 19 77 55 205 121
223 115 11 -3 17 -12 14 -20 -3 -8 -1 -14 4 -14 6 0 10 9 10 19 0 11 5 21 12
23 6 2 9 12 5 21 -5 14 -17 16 -74 11 -37 -3 -79 -11 -93 -17 -14 -6 -27 -11
-30 -12 -23 -8 -113 -55 -105 -55 6 -1 -7 -10 -29 -21 -45 -24 -258 -228 -250
-241 3 -4 1 -8 -4 -8 -9 0 -65 -70 -112 -140 -8 -12 -21 -28 -27 -36 -7 -7
-13 -17 -13 -23 0 -5 -6 -16 -13 -23 -23 -24 -106 -166 -100 -172 4 -3 2 -6
-4 -6 -9 0 -21 -25 -27 -52 0 -4 -9 -16 -18 -28 -10 -11 -15 -20 -12 -20 4 0
0 -10 -8 -22 -8 -13 -18 -35 -22 -50 -13 -54 -27 -29 -24 42 2 39 -1 70 -5 70
-5 0 -5 5 -1 12 4 7 9 53 10 103 1 49 5 128 9 175 9 112 7 317 -3 355 -4 17
-8 56 -8 87 1 32 -1 58 -4 58 -7 0 -30 52 -35 80 -2 12 -9 28 -15 34 -5 7 -7
16 -3 19 3 4 1 7 -5 7 -7 0 -12 8 -12 18 0 41 -90 200 -151 267 -15 17 -39 43
-53 58 -14 15 -26 26 -26 23 0 -3 -10 5 -23 17 -33 31 -69 59 -103 80 -56 34
-249 124 -304 142 -30 10 -61 22 -67 28 -7 5 -22 7 -33 4 -11 -3 -20 -1 -20 5
0 5 -4 6 -10 3 -5 -3 -10 -1 -10 6 0 7 -3 10 -6 6 -4 -3 -19 0 -35 8 -17 9
-30 11 -34 5 -4 -6 -16 -4 -31 6 -13 9 -24 13 -24 9 0 -4 -6 -3 -12 2 -7 5
-26 10 -43 12 -16 2 -34 6 -40 10 -5 4 -17 7 -25 6 -8 -1 -26 3 -40 8 -14 5
-43 11 -65 13 -22 2 -66 10 -97 18 -32 7 -74 12 -93 11 -19 -1 -35 1 -35 6 0
11 -263 11 -279 0 -10 -6 -22 -6 -33 0 -12 7 -18 6 -18 -2z m-35 -1857 c28
-34 54 -61 59 -61 4 -1 18 -10 30 -20 11 -11 33 -30 47 -43 14 -13 34 -36 44
-51 10 -15 20 -25 23 -23 6 7 103 -46 136 -73 11 -9 16 -10 16 -2 0 6 14 11
31 11 16 0 28 4 25 8 -3 5 8 16 23 25 16 9 47 41 70 71 23 30 49 57 58 60 9 4
13 13 9 22 -3 9 11 40 34 75 22 33 40 66 40 73 0 18 27 39 40 31 5 -3 10 -12
10 -19 0 -7 9 -21 20 -31 11 -10 17 -22 14 -26 -3 -5 -1 -9 5 -9 5 0 13 -10
17 -22 6 -20 20 -41 64 -95 6 -7 10 -15 10 -19 0 -4 19 -26 43 -50 23 -23 59
-63 80 -88 31 -38 44 -46 71 -46 19 0 39 7 46 15 6 8 15 13 18 12 13 -4 47 28
62 57 8 16 27 37 43 45 15 9 30 25 33 36 4 11 13 28 22 38 8 9 12 17 8 17 -4
0 0 10 8 22 9 12 16 31 16 41 0 20 56 107 69 107 4 0 6 -35 5 -77 -2 -43 -4
-78 -4 -78 -1 0 -3 -25 -4 -55 -2 -57 -11 -112 -26 -165 -5 -16 -11 -43 -13
-60 -7 -43 -18 -66 -28 -59 -16 9 -33 -7 -18 -18 9 -5 3 -6 -16 -2 -16 4 -32
10 -35 13 -3 4 -14 7 -25 6 -11 0 -22 3 -25 7 -19 25 -252 34 -282 11 -7 -5
-24 -10 -37 -11 -13 0 -31 -8 -40 -16 -10 -9 -22 -16 -27 -16 -31 -1 -85 -90
-55 -90 6 0 11 4 11 10 0 20 51 58 113 83 65 26 191 44 201 28 3 -4 18 -7 33
-6 15 1 40 -4 55 -12 15 -7 39 -14 53 -15 14 -1 25 -5 25 -8 0 -3 15 -5 33 -5
37 0 37 1 7 -110 -24 -86 -32 -123 -33 -142 0 -7 -4 -13 -9 -13 -4 0 -8 -9 -8
-19 0 -11 -4 -22 -9 -25 -5 -4 -8 -14 -6 -24 1 -9 -3 -24 -11 -32 -7 -8 -13
-18 -13 -23 -1 -14 -36 -62 -68 -94 -18 -18 -33 -37 -33 -43 0 -6 -4 -9 -8 -6
-5 3 -18 -5 -29 -17 -29 -31 -64 -57 -91 -68 -14 -5 -20 -14 -16 -21 5 -7 3
-8 -5 -4 -7 5 -35 -8 -69 -32 -110 -77 -157 -94 -260 -97 -85 -3 -98 -1 -144
23 -76 40 -124 143 -99 213 6 17 6 29 1 29 -5 0 -8 6 -5 13 2 6 6 37 9 68 7
70 21 135 38 175 23 51 81 124 105 130 13 4 23 9 23 13 0 4 28 7 62 6 56 0 61
-2 63 -22 1 -13 -3 -23 -8 -23 -6 0 -8 -3 -5 -6 4 -3 0 -17 -7 -30 -15 -30 -8
-78 7 -50 5 9 6 21 3 26 -3 6 -1 10 5 10 6 0 8 5 5 10 -3 6 -1 10 4 10 6 0 11
6 11 13 0 7 14 27 31 45 17 17 28 36 24 42 -8 14 -26 13 -22 -1 1 -6 -6 -13
-15 -14 -10 -2 -18 0 -18 4 0 4 -37 6 -82 6 -59 0 -82 -4 -81 -12 2 -7 -4 -10
-12 -7 -19 8 -89 -67 -106 -111 -6 -16 -15 -39 -19 -50 -10 -24 -21 -60 -28
-95 -10 -45 -9 -265 1 -278 6 -7 7 -15 4 -19 -3 -3 0 -17 8 -32 47 -88 117
-120 257 -116 49 1 95 8 101 14 6 6 19 11 29 11 10 0 18 4 18 10 0 5 3 9 8 8
10 -4 75 24 90 38 6 7 12 17 12 23 0 6 8 11 18 11 9 0 28 9 42 20 14 11 30 20
37 20 6 0 13 5 15 11 2 6 17 9 33 7 l30 -3 -52 -52 c-29 -29 -57 -53 -63 -53
-17 0 -81 -37 -80 -47 0 -4 -8 -9 -20 -11 -11 -2 -20 -8 -20 -13 0 -5 -10 -7
-22 -5 -13 2 -27 0 -33 -4 -5 -4 -28 -13 -50 -20 -22 -7 -46 -17 -53 -23 -22
-18 -322 -13 -322 5 0 4 -8 8 -18 8 -10 0 -27 6 -37 14 -11 8 -25 12 -32 9 -7
-3 -13 0 -13 7 0 6 -6 10 -12 8 -12 -4 -20 0 -53 30 -8 7 -18 13 -22 13 -26 2
-81 34 -107 62 -17 18 -43 39 -58 47 -16 7 -35 25 -45 39 -9 14 -27 34 -40 44
-13 10 -23 24 -23 30 0 7 -9 18 -19 24 -23 15 -49 63 -45 87 2 13 -1 15 -11 6
-10 -8 -17 -6 -29 12 -9 12 -16 28 -16 35 0 7 -4 13 -9 13 -13 0 -72 89 -74
111 -1 10 -5 15 -9 13 -5 -3 -16 9 -26 26 -9 17 -36 57 -59 88 -23 31 -43 60
-43 65 0 4 -11 25 -24 46 -14 21 -22 42 -19 45 4 3 1 6 -5 6 -7 0 -12 5 -12
10 0 6 -7 18 -15 28 -49 57 -105 121 -142 161 -24 25 -43 49 -43 53 0 11 -42
48 -49 44 -10 -6 -11 47 -2 69 5 11 12 28 15 38 6 19 41 20 41 2 2 -28 61
-126 105 -175 27 -30 50 -58 50 -61 0 -3 27 -25 61 -49 l61 -43 33 19 c37 21
108 86 142 130 47 60 93 129 93 140 0 6 9 19 20 29 11 10 20 24 20 30 0 7 7
18 15 25 8 6 14 15 13 18 -2 12 15 47 26 54 11 7 26 -7 111 -110z m-374 -754
c7 -13 25 -40 42 -61 22 -28 27 -41 19 -49 -8 -8 -13 -6 -18 8 -4 10 -12 26
-19 34 -28 35 -56 90 -46 90 6 0 16 -10 22 -22z m189 -403 c0 -8 4 -15 9 -15
5 0 25 -26 45 -58 19 -32 44 -66 56 -77 11 -10 20 -22 20 -27 0 -4 8 -16 18
-26 9 -11 33 -39 52 -63 19 -24 61 -70 92 -101 32 -32 58 -62 58 -68 0 -5 -30
7 -66 27 -63 34 -70 36 -160 35 -52 0 -104 -4 -117 -8 -12 -4 -26 -8 -32 -9
-13 -2 -45 -14 -69 -27 -29 -15 -39 4 -37 69 3 94 60 273 87 273 13 0 16 12
17 68 0 12 6 22 13 22 8 0 14 -7 14 -15z"/>
<path d="M1383 4228 c-27 -31 -48 -80 -67 -159 -17 -70 -16 -174 1 -174 17 0
59 57 71 95 6 19 14 58 18 85 4 28 9 55 10 60 3 10 16 76 16 85 2 37 -20 40
-49 8z"/>
<path d="M3338 4093 c-73 -86 -115 -297 -70 -353 23 -28 67 -29 93 -4 31 32
77 176 73 231 -6 74 -39 143 -69 143 -7 0 -19 -8 -27 -17z"/>
<path d="M4827 4030 c-9 -11 -17 -23 -17 -26 0 -3 -13 -24 -29 -47 -15 -23
-54 -91 -86 -152 -32 -60 -62 -115 -66 -121 -5 -6 -20 -32 -34 -58 -26 -48
-116 -175 -163 -228 -68 -77 -208 -198 -297 -258 -27 -18 -62 -44 -77 -58 -16
-14 -28 -22 -28 -19 0 4 -8 3 -18 -2 -16 -9 -7 -22 77 -108 53 -54 106 -111
119 -126 31 -38 122 -166 122 -172 0 -2 13 -27 30 -54 26 -46 66 -156 62 -172
-1 -4 3 -22 9 -40 6 -20 10 -116 8 -224 -4 -447 -4 -671 -1 -687 3 -10 8 -18
13 -18 5 0 8 3 7 8 -1 4 1 32 5 62 15 110 20 241 21 500 1 273 -2 311 -27 418
-8 34 -12 62 -9 62 3 0 1 5 -6 12 -7 7 -12 20 -12 30 0 10 -4 18 -10 18 -5 0
-9 3 -8 8 5 12 -25 92 -34 92 -4 0 -8 9 -8 20 0 11 -3 20 -8 20 -4 0 -15 15
-25 33 -10 18 -34 51 -52 73 -19 21 -44 50 -56 64 -34 39 -153 140 -165 140
-11 0 -29 30 -22 35 12 10 55 29 61 27 4 -1 7 3 7 8 0 6 6 10 14 10 8 0 16 3
18 8 5 10 97 72 108 72 6 0 10 4 10 10 0 5 14 17 31 25 49 26 221 204 279 290
57 83 150 258 150 280 0 8 4 15 8 17 9 4 65 116 68 137 2 8 7 17 12 20 8 6 17
25 21 46 2 6 10 18 18 28 9 9 12 17 7 17 -5 0 -17 -9 -27 -20z"/>
<path d="M4265 1840 c-3 -5 -1 -10 4 -10 6 0 11 5 11 10 0 6 -2 10 -4 10 -3 0
-8 -4 -11 -10z"/>
<path d="M4250 1806 c0 -9 5 -16 10 -16 6 0 10 4 10 9 0 6 -4 13 -10 16 -5 3
-10 -1 -10 -9z"/>
</g>
</svg>
